<mxfile host="65bd71144e">
    <diagram id="xfnXPAE2505CqLcgRMu6" name="PÃ¡gina-1">
        <mxGraphModel dx="1626" dy="779" grid="1" gridSize="10" guides="1" tooltips="1" connect="1" arrows="1" fold="1" page="1" pageScale="1" pageWidth="827" pageHeight="1169" math="0" shadow="0">
            <root>
                <mxCell id="0"/>
                <mxCell id="1" parent="0"/>
                <mxCell id="27" value="" style="group" parent="1" vertex="1" connectable="0">
                    <mxGeometry x="30" y="20" width="560" height="520" as="geometry"/>
                </mxCell>
                <mxCell id="2" value="" style="rounded=1;whiteSpace=wrap;html=1;fillColor=#0050ef;fontColor=#ffffff;strokeColor=#001DBC;" parent="27" vertex="1">
                    <mxGeometry width="560" height="520" as="geometry"/>
                </mxCell>
                <mxCell id="3" value="Modelo simples via props" style="text;strokeColor=none;align=center;fillColor=none;html=1;verticalAlign=middle;whiteSpace=wrap;rounded=0;fontSize=19;" parent="27" vertex="1">
                    <mxGeometry x="160" width="220" height="30" as="geometry"/>
                </mxCell>
                <mxCell id="4" value="&lt;font style=&quot;font-size: 10px;&quot;&gt;Todo Container&lt;/font&gt;" style="shape=cube;whiteSpace=wrap;html=1;boundedLbl=1;backgroundOutline=1;darkOpacity=0.05;darkOpacity2=0.1;fontSize=19;" parent="27" vertex="1">
                    <mxGeometry x="130" y="50" width="280" height="80" as="geometry"/>
                </mxCell>
                <mxCell id="5" value="Todo Filters" style="shape=cylinder3;whiteSpace=wrap;html=1;boundedLbl=1;backgroundOutline=1;size=15;fontSize=10;" parent="27" vertex="1">
                    <mxGeometry x="430" y="280" width="60" height="80" as="geometry"/>
                </mxCell>
                <mxCell id="6" value="" style="edgeStyle=none;html=1;fontSize=10;exitX=1;exitY=1;exitDx=0;exitDy=0;exitPerimeter=0;" parent="27" source="4" target="5" edge="1">
                    <mxGeometry relative="1" as="geometry"/>
                </mxCell>
                <mxCell id="15" value="&lt;span style=&quot;background-color: rgb(12, 22, 39);&quot;&gt;filters&lt;/span&gt;&lt;br&gt;&lt;span style=&quot;background-color: rgb(12, 22, 39);&quot;&gt;openModal&lt;/span&gt;&lt;br&gt;&lt;span style=&quot;background-color: rgb(12, 22, 39);&quot;&gt;setFilters&lt;/span&gt;" style="edgeLabel;html=1;align=center;verticalAlign=middle;resizable=0;points=[];fontSize=10;spacingTop=0;" parent="6" vertex="1" connectable="0">
                    <mxGeometry x="-0.2437" relative="1" as="geometry">
                        <mxPoint x="5" y="-7" as="offset"/>
                    </mxGeometry>
                </mxCell>
                <mxCell id="8" value="Todo List" style="shape=cylinder3;whiteSpace=wrap;html=1;boundedLbl=1;backgroundOutline=1;size=15;fontSize=10;" parent="27" vertex="1">
                    <mxGeometry x="40" y="280" width="60" height="80" as="geometry"/>
                </mxCell>
                <mxCell id="10" style="edgeStyle=none;html=1;fontSize=10;exitX=0;exitY=0;exitDx=20;exitDy=80;exitPerimeter=0;" parent="27" source="4" target="8" edge="1">
                    <mxGeometry relative="1" as="geometry"/>
                </mxCell>
                <mxCell id="14" value="todoList&lt;br&gt;openModal&lt;br&gt;onDeleteTodo" style="edgeLabel;html=1;align=center;verticalAlign=middle;resizable=0;points=[];fontSize=10;labelBackgroundColor=#0c1627;" parent="10" vertex="1" connectable="0">
                    <mxGeometry x="-0.1378" y="-1" relative="1" as="geometry">
                        <mxPoint as="offset"/>
                    </mxGeometry>
                </mxCell>
                <mxCell id="11" value="Todo Create/Edit" style="shape=cylinder3;whiteSpace=wrap;html=1;boundedLbl=1;backgroundOutline=1;size=15;fontSize=10;" parent="27" vertex="1">
                    <mxGeometry x="230" y="280" width="60" height="80" as="geometry"/>
                </mxCell>
                <mxCell id="12" style="edgeStyle=none;html=1;fontSize=10;entryX=0.5;entryY=0;entryDx=0;entryDy=0;entryPerimeter=0;exitX=0.471;exitY=1.013;exitDx=0;exitDy=0;exitPerimeter=0;" parent="27" source="4" target="11" edge="1">
                    <mxGeometry relative="1" as="geometry"/>
                </mxCell>
                <mxCell id="20" value="onHide&lt;br&gt;data&lt;br&gt;loadTodo" style="edgeLabel;html=1;align=center;verticalAlign=middle;resizable=0;points=[];fontSize=10;" parent="12" vertex="1" connectable="0">
                    <mxGeometry x="-0.3132" y="-1" relative="1" as="geometry">
                        <mxPoint as="offset"/>
                    </mxGeometry>
                </mxCell>
                <mxCell id="16" value="Todo Card" style="rhombus;whiteSpace=wrap;html=1;fontSize=10;" parent="27" vertex="1">
                    <mxGeometry x="30" y="430" width="80" height="80" as="geometry"/>
                </mxCell>
                <mxCell id="17" value="" style="edgeStyle=none;html=1;fontSize=10;" parent="27" source="8" target="16" edge="1">
                    <mxGeometry relative="1" as="geometry"/>
                </mxCell>
                <mxCell id="19" value="onDeleteTodo&lt;br&gt;openModal" style="edgeLabel;html=1;align=center;verticalAlign=middle;resizable=0;points=[];fontSize=10;" parent="17" vertex="1" connectable="0">
                    <mxGeometry x="-0.275" y="-1" relative="1" as="geometry">
                        <mxPoint as="offset"/>
                    </mxGeometry>
                </mxCell>
                <mxCell id="21" value="Advanced Search" style="rhombus;whiteSpace=wrap;html=1;fontSize=10;" parent="27" vertex="1">
                    <mxGeometry x="420" y="430" width="80" height="80" as="geometry"/>
                </mxCell>
                <mxCell id="22" value="" style="edgeStyle=none;html=1;fontSize=10;" parent="27" source="5" target="21" edge="1">
                    <mxGeometry relative="1" as="geometry"/>
                </mxCell>
                <mxCell id="23" value="filters&lt;br&gt;setFilters" style="edgeLabel;html=1;align=center;verticalAlign=middle;resizable=0;points=[];fontSize=10;" parent="22" vertex="1" connectable="0">
                    <mxGeometry x="-0.2857" y="-1" relative="1" as="geometry">
                        <mxPoint as="offset"/>
                    </mxGeometry>
                </mxCell>
                <mxCell id="28" value="" style="group;fontSize=9;" parent="1" vertex="1" connectable="0">
                    <mxGeometry x="40" y="570" width="560" height="520" as="geometry"/>
                </mxCell>
                <mxCell id="29" value="" style="rounded=1;whiteSpace=wrap;html=1;fillColor=#60a917;fontColor=#ffffff;strokeColor=#2D7600;spacing=3;" parent="28" vertex="1">
                    <mxGeometry y="-10" width="560" height="520" as="geometry"/>
                </mxCell>
                <mxCell id="30" value="Modelo com Context Api" style="text;strokeColor=none;align=center;fillColor=none;html=1;verticalAlign=middle;whiteSpace=wrap;rounded=0;fontSize=19;" parent="28" vertex="1">
                    <mxGeometry x="160" width="220" height="30" as="geometry"/>
                </mxCell>
                <mxCell id="31" value="&lt;font style=&quot;font-size: 10px;&quot;&gt;Todo Container&lt;/font&gt;" style="shape=cube;whiteSpace=wrap;html=1;boundedLbl=1;backgroundOutline=1;darkOpacity=0.05;darkOpacity2=0.1;fontSize=19;" parent="28" vertex="1">
                    <mxGeometry x="150" y="190" width="280" height="80" as="geometry"/>
                </mxCell>
                <mxCell id="32" value="Todo Filters" style="shape=cylinder3;whiteSpace=wrap;html=1;boundedLbl=1;backgroundOutline=1;size=15;fontSize=10;" parent="28" vertex="1">
                    <mxGeometry x="400" y="300" width="60" height="80" as="geometry"/>
                </mxCell>
                <mxCell id="33" value="" style="edgeStyle=none;html=1;fontSize=10;exitX=1;exitY=1;exitDx=0;exitDy=0;exitPerimeter=0;" parent="28" source="31" target="32" edge="1">
                    <mxGeometry relative="1" as="geometry"/>
                </mxCell>
                <mxCell id="35" value="Todo List" style="shape=cylinder3;whiteSpace=wrap;html=1;boundedLbl=1;backgroundOutline=1;size=15;fontSize=10;" parent="28" vertex="1">
                    <mxGeometry x="140" y="300" width="60" height="80" as="geometry"/>
                </mxCell>
                <mxCell id="36" style="edgeStyle=none;html=1;fontSize=10;exitX=0;exitY=0;exitDx=20;exitDy=80;exitPerimeter=0;" parent="28" source="31" target="35" edge="1">
                    <mxGeometry relative="1" as="geometry"/>
                </mxCell>
                <mxCell id="38" value="Todo Create/Edit" style="shape=cylinder3;whiteSpace=wrap;html=1;boundedLbl=1;backgroundOutline=1;size=15;fontSize=10;" parent="28" vertex="1">
                    <mxGeometry x="270" y="300" width="60" height="80" as="geometry"/>
                </mxCell>
                <mxCell id="39" style="edgeStyle=none;html=1;fontSize=10;entryX=0.5;entryY=0;entryDx=0;entryDy=0;entryPerimeter=0;exitX=0;exitY=0;exitDx=150;exitDy=80;exitPerimeter=0;" parent="28" source="31" target="38" edge="1">
                    <mxGeometry relative="1" as="geometry"/>
                </mxCell>
                <mxCell id="41" value="Todo Card" style="rhombus;whiteSpace=wrap;html=1;fontSize=10;" parent="28" vertex="1">
                    <mxGeometry x="70" y="410" width="80" height="80" as="geometry"/>
                </mxCell>
                <mxCell id="42" value="" style="edgeStyle=none;html=1;fontSize=10;" parent="28" source="35" target="41" edge="1">
                    <mxGeometry relative="1" as="geometry"/>
                </mxCell>
                <mxCell id="44" value="Advanced Search" style="rhombus;whiteSpace=wrap;html=1;fontSize=10;" parent="28" vertex="1">
                    <mxGeometry x="390" y="410" width="80" height="80" as="geometry"/>
                </mxCell>
                <mxCell id="45" value="" style="edgeStyle=none;html=1;fontSize=10;" parent="28" source="32" target="44" edge="1">
                    <mxGeometry relative="1" as="geometry"/>
                </mxCell>
                <mxCell id="51" value="" style="edgeStyle=none;html=1;fontSize=10;" parent="28" source="50" target="31" edge="1">
                    <mxGeometry relative="1" as="geometry"/>
                </mxCell>
                <mxCell id="105" value="Envolve o seu container com &amp;lt;TodoContext.Provider&amp;gt;&lt;br&gt;passando seu value (tudo a ser compartilhado)" style="edgeLabel;html=1;align=center;verticalAlign=middle;resizable=0;points=[];fontSize=10;" parent="51" vertex="1" connectable="0">
                    <mxGeometry x="-0.4019" y="-1" relative="1" as="geometry">
                        <mxPoint as="offset"/>
                    </mxGeometry>
                </mxCell>
                <mxCell id="50" value="" style="shape=process;whiteSpace=wrap;html=1;backgroundOutline=1;labelBackgroundColor=#0c1627;fontSize=10;" parent="28" vertex="1">
                    <mxGeometry x="30" y="40" width="510" height="100" as="geometry"/>
                </mxCell>
                <mxCell id="52" value="TODO CONTEXT PROVIDER" style="text;strokeColor=none;align=center;fillColor=none;html=1;verticalAlign=middle;whiteSpace=wrap;rounded=0;labelBackgroundColor=#0c1627;fontSize=10;" parent="28" vertex="1">
                    <mxGeometry x="170" y="40" width="210" height="30" as="geometry"/>
                </mxCell>
                <mxCell id="54" value="todoList&lt;br&gt;openModal&lt;br&gt;onDeleteTodo" style="edgeLabel;html=1;align=center;verticalAlign=middle;resizable=0;points=[];fontSize=10;labelBackgroundColor=#0c1627;" parent="28" vertex="1" connectable="0">
                    <mxGeometry x="140.00437462079262" y="14.996419259606455" as="geometry">
                        <mxPoint x="9" y="82" as="offset"/>
                    </mxGeometry>
                </mxCell>
                <mxCell id="55" value="&lt;span style=&quot;background-color: rgb(12, 22, 39);&quot;&gt;filters&lt;/span&gt;&lt;span style=&quot;background-color: rgb(12, 22, 39);&quot;&gt;l&lt;/span&gt;&lt;br&gt;&lt;span style=&quot;background-color: rgb(12, 22, 39);&quot;&gt;setFilters&lt;/span&gt;" style="edgeLabel;html=1;align=center;verticalAlign=middle;resizable=0;points=[];fontSize=10;spacingTop=0;" parent="28" vertex="1" connectable="0">
                    <mxGeometry x="274.99510465749904" y="89.99739769849612" as="geometry"/>
                </mxCell>
                <mxCell id="56" value="onHide&lt;br&gt;data&lt;br&gt;loadTodo" style="edgeLabel;html=1;align=center;verticalAlign=middle;resizable=0;points=[];fontSize=10;" parent="28" vertex="1" connectable="0">
                    <mxGeometry x="409.99646816197264" y="89.99331887095411" as="geometry"/>
                </mxCell>
                <mxCell id="57" value="&lt;font style=&quot;font-size: 10px;&quot;&gt;Todas a funÃ§Ãµes e propeiedades sÃ£o acessÃ­veis em qualquer componente por meio o hook useContext&lt;/font&gt;" style="ellipse;shape=cloud;whiteSpace=wrap;html=1;labelBackgroundColor=none;fontSize=10;spacing=18;" parent="28" vertex="1">
                    <mxGeometry x="-10" y="210" width="150" height="130" as="geometry"/>
                </mxCell>
                <mxCell id="82" value="" style="group;fontSize=9;" parent="1" vertex="1" connectable="0">
                    <mxGeometry x="40" y="1100" width="560" height="630" as="geometry"/>
                </mxCell>
                <mxCell id="83" value="" style="rounded=1;whiteSpace=wrap;html=1;fillColor=#6a00ff;fontColor=#ffffff;strokeColor=#3700CC;spacing=3;" parent="82" vertex="1">
                    <mxGeometry y="-10" width="560" height="640" as="geometry"/>
                </mxCell>
                <mxCell id="84" value="Modelo com Context Api Com Hooks" style="text;strokeColor=none;align=center;fillColor=none;html=1;verticalAlign=middle;whiteSpace=wrap;rounded=0;fontSize=19;" parent="82" vertex="1">
                    <mxGeometry x="160" width="220" height="30" as="geometry"/>
                </mxCell>
                <mxCell id="85" value="&lt;font style=&quot;font-size: 10px;&quot;&gt;Todo Container&lt;/font&gt;" style="shape=cube;whiteSpace=wrap;html=1;boundedLbl=1;backgroundOutline=1;darkOpacity=0.05;darkOpacity2=0.1;fontSize=19;" parent="82" vertex="1">
                    <mxGeometry x="150" y="305" width="280" height="80" as="geometry"/>
                </mxCell>
                <mxCell id="86" value="Todo Filters" style="shape=cylinder3;whiteSpace=wrap;html=1;boundedLbl=1;backgroundOutline=1;size=15;fontSize=10;" parent="82" vertex="1">
                    <mxGeometry x="400" y="420" width="60" height="80" as="geometry"/>
                </mxCell>
                <mxCell id="87" value="" style="edgeStyle=none;html=1;fontSize=10;exitX=1;exitY=1;exitDx=0;exitDy=0;exitPerimeter=0;" parent="82" source="85" target="86" edge="1">
                    <mxGeometry relative="1" as="geometry"/>
                </mxCell>
                <mxCell id="88" value="Todo List" style="shape=cylinder3;whiteSpace=wrap;html=1;boundedLbl=1;backgroundOutline=1;size=15;fontSize=10;" parent="82" vertex="1">
                    <mxGeometry x="140" y="420" width="60" height="80" as="geometry"/>
                </mxCell>
                <mxCell id="89" style="edgeStyle=none;html=1;fontSize=10;exitX=0;exitY=0;exitDx=20;exitDy=80;exitPerimeter=0;" parent="82" source="85" target="88" edge="1">
                    <mxGeometry relative="1" as="geometry"/>
                </mxCell>
                <mxCell id="90" value="Todo Create/Edit" style="shape=cylinder3;whiteSpace=wrap;html=1;boundedLbl=1;backgroundOutline=1;size=15;fontSize=10;" parent="82" vertex="1">
                    <mxGeometry x="270" y="420" width="60" height="80" as="geometry"/>
                </mxCell>
                <mxCell id="91" style="edgeStyle=none;html=1;fontSize=10;entryX=0.5;entryY=0;entryDx=0;entryDy=0;entryPerimeter=0;exitX=0;exitY=0;exitDx=150;exitDy=80;exitPerimeter=0;" parent="82" source="85" target="90" edge="1">
                    <mxGeometry relative="1" as="geometry"/>
                </mxCell>
                <mxCell id="92" value="Todo Card" style="rhombus;whiteSpace=wrap;html=1;fontSize=10;" parent="82" vertex="1">
                    <mxGeometry x="60" y="530" width="80" height="80" as="geometry"/>
                </mxCell>
                <mxCell id="93" value="" style="edgeStyle=none;html=1;fontSize=10;" parent="82" source="88" target="92" edge="1">
                    <mxGeometry relative="1" as="geometry"/>
                </mxCell>
                <mxCell id="94" value="Advanced Search" style="rhombus;whiteSpace=wrap;html=1;fontSize=10;" parent="82" vertex="1">
                    <mxGeometry x="390" y="540" width="80" height="80" as="geometry"/>
                </mxCell>
                <mxCell id="95" value="" style="edgeStyle=none;html=1;fontSize=10;" parent="82" source="86" target="94" edge="1">
                    <mxGeometry relative="1" as="geometry"/>
                </mxCell>
                <mxCell id="98" value="" style="edgeStyle=none;html=1;fontSize=10;" parent="82" source="99" target="85" edge="1">
                    <mxGeometry relative="1" as="geometry"/>
                </mxCell>
                <mxCell id="104" value="&lt;font style=&quot;font-size: 10px;&quot;&gt;Todas a funÃ§Ãµes e propeiedades sÃ£o acessÃ­veis em qualquer componente por meio o hook useTodoContext&lt;/font&gt;" style="ellipse;shape=cloud;whiteSpace=wrap;html=1;labelBackgroundColor=none;fontSize=10;spacing=18;" parent="82" vertex="1">
                    <mxGeometry x="-10" y="320" width="150" height="130" as="geometry"/>
                </mxCell>
                <mxCell id="107" value="" style="group" parent="82" vertex="1" connectable="0">
                    <mxGeometry x="35" y="200" width="510" height="70" as="geometry"/>
                </mxCell>
                <mxCell id="99" value="" style="shape=process;whiteSpace=wrap;html=1;backgroundOutline=1;labelBackgroundColor=#0c1627;fontSize=10;" parent="107" vertex="1">
                    <mxGeometry width="510" height="70" as="geometry"/>
                </mxCell>
                <mxCell id="100" value="TODO CONTEXT PROVIDER" style="text;strokeColor=none;align=center;fillColor=none;html=1;verticalAlign=middle;whiteSpace=wrap;rounded=0;labelBackgroundColor=#0c1627;fontSize=10;" parent="107" vertex="1">
                    <mxGeometry x="145" width="210" height="30" as="geometry"/>
                </mxCell>
                <mxCell id="106" value="Exporta o Provider com seu valores setados e tambÃ©m um hook prÃ³prio com o contexto ex: useTodoContext" style="text;strokeColor=none;align=center;fillColor=none;html=1;verticalAlign=middle;whiteSpace=wrap;rounded=0;labelBackgroundColor=#0c1627;fontSize=10;" parent="107" vertex="1">
                    <mxGeometry x="145" y="20" width="210" height="60" as="geometry"/>
                </mxCell>
                <mxCell id="115" value="" style="edgeStyle=none;html=1;fontSize=10;exitX=0.5;exitY=1;exitDx=0;exitDy=0;" parent="82" source="108" edge="1">
                    <mxGeometry relative="1" as="geometry">
                        <mxPoint x="282" y="200" as="targetPoint"/>
                    </mxGeometry>
                </mxCell>
                <mxCell id="108" value="" style="shape=hexagon;perimeter=hexagonPerimeter2;whiteSpace=wrap;html=1;fixedSize=1;labelBackgroundColor=none;fontSize=10;" parent="82" vertex="1">
                    <mxGeometry x="160" y="60" width="240" height="100" as="geometry"/>
                </mxCell>
                <mxCell id="109" value="todoList&lt;br&gt;openModal&lt;br&gt;onDeleteTodo" style="edgeLabel;html=1;align=center;verticalAlign=middle;resizable=0;points=[];fontSize=10;labelBackgroundColor=#0c1627;" parent="82" vertex="1" connectable="0">
                    <mxGeometry x="210.00437462079262" y="119.99641925960645" as="geometry"/>
                </mxCell>
                <mxCell id="112" value="&lt;br&gt;&lt;br&gt;loadTodo" style="edgeLabel;html=1;align=center;verticalAlign=middle;resizable=0;points=[];fontSize=10;" parent="82" vertex="1" connectable="0">
                    <mxGeometry x="289.99646816197264" y="109.99331887095398" as="geometry">
                        <mxPoint x="-12" y="-6" as="offset"/>
                    </mxGeometry>
                </mxCell>
                <mxCell id="113" value="&lt;span style=&quot;background-color: rgb(12, 22, 39);&quot;&gt;filters&lt;/span&gt;&lt;br&gt;&lt;span style=&quot;background-color: rgb(12, 22, 39);&quot;&gt;openModal&lt;/span&gt;&lt;br&gt;&lt;span style=&quot;background-color: rgb(12, 22, 39);&quot;&gt;setFilters&lt;/span&gt;" style="edgeLabel;html=1;align=center;verticalAlign=middle;resizable=0;points=[];fontSize=10;spacingTop=0;" parent="82" vertex="1" connectable="0">
                    <mxGeometry x="339.99510465749904" y="109.99739769849612" as="geometry"/>
                </mxCell>
                <mxCell id="114" value="useTodo" style="text;strokeColor=none;align=center;fillColor=none;html=1;verticalAlign=middle;whiteSpace=wrap;rounded=0;labelBackgroundColor=none;fontSize=10;" parent="82" vertex="1">
                    <mxGeometry x="240" y="60" width="60" height="30" as="geometry"/>
                </mxCell>
                <mxCell id="116" value="FunÃ§Ãµes e lÃ³gicas de&amp;nbsp;&lt;br&gt;manipulaÃ§Ã£o de estado&lt;br&gt;fica no hook e ele Ã©&lt;br&gt;apenas usado na&lt;br&gt;criaÃ£o do contexto" style="ellipse;shape=cloud;whiteSpace=wrap;html=1;labelBackgroundColor=none;fontSize=10;" parent="82" vertex="1">
                    <mxGeometry x="5" y="20" width="145" height="140" as="geometry"/>
                </mxCell>
            </root>
        </mxGraphModel>
    </diagram>
</mxfile>